# xmcd
# 
# Track frame offsets:
#     150
#     15315
#     29997
#     46057
#     59670
#     72230
#     89965
#     118017
#     134322
#     150627
#     176277
#     200742
# 
# Disc length: 2909
# 
# Revision: 6
# Processed by: cddbd v1.5.2PL0 Copyright (c) Steve Scherf et al.
# Submitted via: fre:ac v1.0.27
# 
DISCID=ad0b5b0c
DTITLE=The Blind Boys of Alabama - Higher Ground
DYEAR=2002
DGENRE=Gospel
TTITLE0=People Get Ready
TTITLE1=Spirit in the Dark
TTITLE2=Wade in the Water
TTITLE3=Stand by Me
TTITLE4=The Cross
TTITLE5=Many Rivers to Cross
TTITLE6=Higher Ground
TTITLE7=Freedom Road
TTITLE8=I May Not Can See
TTITLE9=You and Your Folks, 23rd Psalm
TTITLE10=I Shall Not Walk Alone
TTITLE11=Precious Lord
EXTD=
EXTT0=
EXTT1=
EXTT2=
EXTT3=
EXTT4=
EXTT5=
EXTT6=
EXTT7=
EXTT8=
EXTT9=
EXTT10=
EXTT11=
PLAYORDER=
